Coordinates
version=1
nRows=9
nColumns=63
inDegrees=yes

Units are S.I. units (second, meters, Newtons, ...)
If the header above contains a line with 'inDegrees', this indicates whether rotational values are in degrees (yes) or radians (no).

endheader
time	pelvis_tilt	pelvis_list	pelvis_rotation	pelvis_tx	pelvis_ty	pelvis_tz	hip_flexion_r	hip_adduction_r	hip_rotation_r	knee_angle_r	knee_angle_r_beta	ankle_angle_r	subtalar_angle_r	mtp_angle_r	hip_flexion_l	hip_adduction_l	hip_rotation_l	knee_angle_l	knee_angle_l_beta	ankle_angle_l	subtalar_angle_l	mtp_angle_l	L5_S1_Flex_Ext	L5_S1_Lat_Bending	L5_S1_axial_rotation	L4_L5_Flex_Ext	L4_L5_Lat_Bending	L4_L5_axial_rotation	L3_L4_Flex_Ext	L3_L4_Lat_Bending	L3_L4_axial_rotation	L2_L3_Flex_Ext	L2_L3_Lat_Bending	L2_L3_axial_rotation	L1_L2_Flex_Ext	L1_L2_Lat_Bending	L1_L2_axial_rotation	L1_T12_Flex_Ext	L1_T12_Lat_Bending	L1_T12_axial_rotation	Abs_r3	Abs_r2	Abs_r1	Abs_t1	Abs_t2	neck_flexion	neck_bending	neck_rotation	arm_flex_r	arm_add_r	arm_rot_r	elbow_flex_r	pro_sup_r	wrist_flex_r	wrist_dev_r	arm_flex_l	arm_add_l	arm_rot_l	elbow_flex_l	pro_sup_l	wrist_flex_l	wrist_dev_l
0.000000	-2.075956	-6.797822	85.526882	0.315608	0.893747	0.678962	-2.630244	-0.876291	17.788232	1.195496	0.020865	22.588514	2.197859	0.000000	-1.306163	-0.969687	-11.377429	5.875719	0.102551	25.961781	0.408316	0.000000	0.022335	-0.025917	1.224675	0.041478	-0.034470	1.301218	0.036694	-0.063015	1.301218	0.025526	-0.063015	1.071591	0.020740	-0.052850	0.995049	0.012762	-0.040145	0.918506	0.159534	-0.293178	6.811277	0.000000	0.000000	27.345399	-2.476896	-2.831746	4.830238	-15.288256	36.719234	74.716891	75.305254	5.667014	2.790919	3.178265	-14.423817	33.535433	78.963449	41.528887	4.765424	14.759440
0.016949	-2.251682	-6.827993	85.523936	0.315837	0.894006	0.679345	-2.308271	-0.960449	18.166258	1.441950	0.025167	23.204700	1.702028	0.000000	-1.305207	-0.735000	-11.023643	5.364990	0.093637	26.489909	0.453538	0.000000	0.021542	-0.055567	1.223479	0.040006	-0.073904	1.299946	0.035391	-0.135105	1.299946	0.024620	-0.135105	1.070544	0.020004	-0.113312	0.994077	0.012309	-0.086073	0.917609	0.153873	-0.628583	6.804622	0.000000	0.000000	27.239205	-2.299078	-3.092511	4.061975	-15.795789	36.468438	75.869023	78.494228	7.443749	3.829777	2.612574	-14.939048	33.785801	80.432657	44.662024	3.784229	16.504496
0.033898	-2.419033	-6.846282	85.456622	0.316091	0.894234	0.679643	-2.043061	-1.060421	18.446844	1.639104	0.028608	23.744051	1.436507	0.000000	-1.300745	-0.519274	-10.794280	4.974846	0.086827	26.923608	0.494058	0.000000	0.020581	-0.082584	1.237780	0.038220	-0.109837	1.315141	0.033812	-0.200795	1.315141	0.023521	-0.200795	1.083058	0.019111	-0.168405	1.005696	0.011760	-0.127923	0.928335	0.147005	-0.934208	6.884161	0.000000	0.000000	27.151284	-2.156647	-3.333619	3.367674	-16.266237	36.237873	76.917607	81.028627	8.849703	4.835181	2.236206	-15.430583	34.219321	81.618538	47.199130	2.842068	17.653159
0.050847	-2.577490	-6.853817	85.333550	0.316369	0.894433	0.679859	-1.830348	-1.172867	18.643361	1.791345	0.031265	24.210386	1.369823	0.000000	-1.292370	-0.322364	-10.673044	4.696010	0.081961	27.272484	0.527228	0.000000	0.019512	-0.107092	1.265113	0.036236	-0.142433	1.344183	0.032057	-0.260384	1.344183	0.022301	-0.260384	1.106974	0.018119	-0.218382	1.027904	0.011149	-0.165886	0.948835	0.139374	-1.211448	7.036179	0.000000	0.000000	27.079777	-2.045007	-3.553940	2.740666	-16.697778	36.020107	77.867710	82.962126	9.922231	5.802883	2.027486	-15.898402	34.810223	82.550523	49.193343	1.934699	18.269633
0.067797	-2.726535	-6.851726	85.163330	0.316667	0.894608	0.679993	-1.665866	-1.294452	18.769180	1.903058	0.033215	24.607527	1.470502	0.000000	-1.279676	-0.144125	-10.643641	4.519207	0.078875	27.546143	0.550398	0.000000	0.018400	-0.129214	1.303012	0.034170	-0.171855	1.384450	0.030229	-0.314172	1.384450	0.021029	-0.314172	1.140135	0.017086	-0.263494	1.058697	0.010514	-0.200153	0.977259	0.131428	-1.461699	7.246960	0.000000	0.000000	27.022825	-1.959564	-3.752344	2.174279	-17.088591	35.807710	78.724400	84.348400	10.698690	6.728640	1.964737	-16.342485	35.532737	83.258042	50.697802	1.057879	18.418121
0.084746	-2.865650	-6.841138	84.954575	0.316984	0.894765	0.680048	-1.545351	-1.421836	18.837672	1.978630	0.034534	24.939296	1.707071	0.000000	-1.262258	0.015589	-10.689777	4.435159	0.077408	27.754192	0.560917	0.000000	0.017305	-0.149074	1.349010	0.032138	-0.198268	1.433323	0.028431	-0.362459	1.433323	0.019778	-0.362459	1.180384	0.016070	-0.303992	1.096071	0.009888	-0.230916	1.011758	0.123610	-1.686355	7.502789	0.000000	0.000000	26.978570	-1.895722	-3.927702	1.661842	-17.436852	35.593253	79.492743	85.241123	11.216437	7.608203	2.026287	-16.762812	36.361091	83.770526	51.765646	0.207367	18.162825
0.101695	-2.994316	-6.823182	84.715895	0.317317	0.894908	0.680026	-1.464537	-1.551684	18.862208	2.022448	0.035298	25.209511	2.048059	0.000000	-1.239710	0.156924	-10.795157	4.434590	0.077398	27.906234	0.556137	0.000000	0.016291	-0.166794	1.400642	0.030255	-0.221837	1.488182	0.026765	-0.405544	1.488182	0.018619	-0.405544	1.225562	0.015128	-0.340127	1.138022	0.009309	-0.258365	1.050482	0.116367	-1.886812	7.789952	0.000000	0.000000	26.945154	-1.848886	-4.078884	1.196685	-17.740741	35.369304	80.177807	85.693971	11.512827	8.437329	2.190459	-17.159363	37.269514	84.117405	52.450013	-0.621080	17.567949
0.118644	-3.112015	-6.798986	84.455901	0.317665	0.895042	0.679927	-1.419160	-1.680657	18.856160	2.038896	0.035585	25.421996	2.461992	0.000000	-1.211627	0.280024	-10.943485	4.508223	0.078683	28.011878	0.533408	0.000000	0.015420	-0.182499	1.455442	0.028637	-0.242724	1.546407	0.025334	-0.443728	1.546407	0.017624	-0.443728	1.273512	0.014319	-0.372152	1.182547	0.008811	-0.282691	1.091582	0.110144	-2.064465	8.094733	0.000000	0.000000	26.920717	-1.814461	-4.204762	0.772136	-17.998434	35.128434	80.784659	85.760617	11.625218	9.211771	2.435579	-17.532117	38.232237	84.328109	52.804043	-1.431703	16.697695
0.135593	-3.218228	-6.769679	84.183203	0.318025	0.895171	0.679754	-1.404954	-1.805418	18.832897	2.032363	0.035471	25.580569	2.917397	0.000000	-1.177602	0.385035	-11.118468	4.646782	0.081102	28.080728	0.490079	0.000000	0.014754	-0.196311	1.510944	0.027400	-0.261094	1.605378	0.024240	-0.477310	1.605378	0.016863	-0.477310	1.322076	0.013701	-0.400317	1.227642	0.008431	-0.304086	1.133208	0.105387	-2.220708	8.403416	0.000000	0.000000	26.903402	-1.787852	-4.304206	0.381526	-18.208110	34.863213	81.318367	85.494738	11.590965	9.927283	2.739973	-17.881055	39.223488	84.432068	52.880873	-2.228746	15.616267
